<svg width="96" height="96" xmlns="http://www.w3.org/2000/svg" viewBox="0 0 52 52" fill="#fc9c1c"><path d="M48.9 43.3c0 0.9-0.4 1.8-1.1 2.4 -1.3 1.1-4.3 2.9-9.1 2.6 -0.2 0-0.3 0-0.5 0.1C36.9 48.8 33.3 50 29.1 50c-2 0-3.9-0.3-5.6-0.8 -0.3-0.1-0.5-0.2-0.8-0.3 -0.5-0.3-2.4-1.4-5.2-1.4 -0.7 0-1.3 0.1-2 0.2 -0.1 0-0.5 0.1-1.2 0.1 -2.7 0-9.1-0.7-10.9-7.7 0-0.1-1.1-3.7 0.8-6.9C5.5 30.9 7.7 29.5 10.9 28.8c0 0 1-0.3 2.6-0.3 2.2 0 5.4 0.6 8.5 3.4 0.3 0.3 0.7 0.4 1 0.3 0.8-0.2 2-0.5 3.4-0.5 2.2 0 4.2 0.6 6.1 1.9 0 0 0.1 0 0.1-0.1l0.7-10.3c0-0.1 0-0.3 0-0.4l-3-6.2c0 0 0-0.1-0.1-0.2 -0.1-0.2-0.3-0.6-0.5-0.6 0 0-0.2 0-0.4 0.1 -0.3 0.2-0.7 0.4-1.2 0.5 -0.2 0-0.5 0.1-0.8 0.1 -0.9 0-1.9-0.2-3-0.6 -0.1 0-0.1 0-0.2-0.1 -0.1 0-0.2 0-0.3-0.1 -0.5-0.1-1.2-0.2-1.5 0 -0.8 0.5-1.7 0.7-2.8 0.7 -0.8 0-1.6-0.1-2.3-0.3 -0.7-0.2-1.3-0.5-1.7-0.9 -0.5-0.5-0.7-1.1-0.6-1.9 0.2-1 1-2 1.9-2.4 0.3-0.1 0.7-0.3 1-0.4C16.7 9.5 15.5 8 16.4 6.6c0.1-0.1 0.2-0.2 0.3-0.3C16.7 6.3 18.2 5.4 19.1 3.8 19.5 3.1 20.7 2 22.4 2c0.7 0 1.4 0.2 2.1 0.5 1.1 0.3 7.2 1.8 9.4 4 0.8 0.9 3.2 3.6 3.4 5.4 0.7 2.4 2.2 6.4 3.2 7.4 0.2 0.1 0.3 0.3 0.4 0.5 1.2 1.8 5.1 7.9 5.6 10.9C46.8 31.4 48.9 37.7 48.9 43.3z"/></svg>
