<?xml version="1.0" encoding="UTF-8"?>
<svg width="200" height="200" fill="rgba(12, 12, 13, .8)" version="1.1" viewBox="0 0 100 100" xmlns="http://www.w3.org/2000/svg">
<g transform="translate(0 -952.36)">
<path transform="translate(0 952.36)" d="m13 15c-4.3801 0-8 3.6199-8 8v14 22 18c0 4.3801 3.6199 8 8 8h74c4.3801 0 8-3.6199 8-8v-40c0-4.3801-3.6199-8-8-8h-34.375l-5.125-7.6875c-0.75105-1.1266-1.6194-2.5254-2.9062-3.8125s-3.2358-2.5-5.5938-2.5zm0 6h26c0.41201 0 0.70719 0.11329 1.3438 0.75s1.3708 1.728 2.1562 2.9062l6 9c0.54411 0.82165 1.5145 1.3432 2.5 1.3438h36c1.1599 0 2 0.8401 2 2v40c0 1.1599-0.84009 2-2 2h-74c-1.1599 0-2-0.8401-2-2v-18-22-14c0-1.1599 0.84009-2 2-2zm36.969 18.938c-1.5814 0.016288-3.0016 1.4814-2.9688 3.0625v10c-3.4228-2.6e-5 -6.915 0-10.312 0-1.571 0.08155-2.9261 1.5853-2.8443 3.1563s1.5858 2.9258 3.1568 2.8437h10v10c-0.02242 1.5849 1.4149 3.0427 3 3.0427s3.0224-1.4578 3-3.0427v-10h10c1.5849 0.02242 3.0427-1.4149 3.0427-3s-1.4578-3.0224-3.0427-3h-10v-10c0.03331-1.6019-1.4291-3.0794-3.0312-3.0625z" color="rgba(12, 12, 13, .8)" fill="rgba(12, 12, 13, .8)" overflow="visible" style="block-progression:tb;text-indent:0;text-transform:none"/>
</g>
</svg>
